<svg width="50" height="50" viewBox="0 0 50 50" fill="none" xmlns="http://www.w3.org/2000/svg">
<g id="Vector" filter="url(#filter0_df_3_348)">
<path d="M44.9012 14.8475C42.2027 7.8635 35.9063 4.44579 28.4106 4.0743C28.4106 4.0743 26.9114 4 24.9625 4C23.0136 4 21.5145 4.0743 21.5145 4.0743C14.0187 4.37149 7.79727 7.7892 5.09881 14.8475C4.27428 16.8536 3 20.94 3 23.8376C3 35.5024 9.67121 38.6229 13.0443 39.4402C14.1687 39.7374 15.0681 40.7032 15.2181 41.892L15.6678 44.641C15.6678 45.7555 16.4923 46.7214 17.6167 46.7957L21.7394 46.9443C23.9131 47.0186 26.0869 47.0186 28.2606 46.9443L32.3833 46.7957C33.5077 46.6471 34.3322 45.7555 34.3322 44.641L34.7819 41.892C34.9319 40.7032 35.8313 39.7374 36.9557 39.4402C40.3288 38.6229 47 35.5024 47 23.8376C47 20.94 45.7257 16.8536 44.9012 14.8475ZM15.4429 31.7132C10.8705 31.7132 9.37138 30.4501 9.37138 25.5464C9.37138 21.3114 12.6695 16.7793 15.9676 16.7793C20.0903 16.7793 21.3646 19.8255 21.3646 24.0605C21.2896 28.2955 20.2402 31.7132 15.4429 31.7132ZM24.9625 39.2173C23.9881 39.143 22.8637 38.0285 22.8637 35.2052C22.8637 32.0847 23.5383 31.7132 24.9625 31.7132C26.4617 31.7132 27.0613 32.0847 27.0613 35.2052C27.1363 38.0285 25.937 39.143 24.9625 39.2173ZM34.5571 31.7132C29.7598 31.7132 28.6354 28.2955 28.6354 24.0605C28.6354 19.8255 29.9847 16.7793 34.0324 16.7793C37.2555 16.7793 40.6286 21.3114 40.6286 25.5464C40.6286 30.3758 39.1295 31.7132 34.5571 31.7132Z" fill="#1A6B96"/>
</g>
<defs>
<filter id="filter0_df_3_348" x="-17" y="-16" width="84" height="83" filterUnits="userSpaceOnUse" color-interpolation-filters="sRGB">
<feBlend mode="normal" in="SourceGraphic" in2="effect1_dropShadow_3_348" result="shape"/>
</filter>
</defs>
</svg>
