<svg width="50" height="50" viewBox="0 0 50 50" fill="none" xmlns="http://www.w3.org/2000/svg">
<g id="Vector" filter="url(#filter0_df_3_341)">
<path d="M45.4988 21.7367C45.4988 31.5 40.9988 47.9997 24.4409 47.9997C7.88296 47.9997 4 34 4 21.7367C4 12.8223 11.4988 10.2355 17.5296 10.2355C18.4668 10.2973 19.8138 10.7197 19.8138 11.7092V12.8223C19.8138 13.5026 19.2282 14.121 18.5839 14.0591L17.0025 13.9355C15.6554 13.8736 14.5426 14.9868 14.5426 16.4091L14.6011 16.7802C14.6597 17.5841 15.304 18.2644 16.0654 18.3262L20.9852 18.8828C23.328 19.192 25.7294 19.192 28.1308 18.8828L33.0506 18.3262C33.8121 18.2644 34.4563 17.5841 34.5149 16.7802L34.5734 16.4091C34.5734 14.9868 33.4606 13.8736 32.1135 13.9355L30.5321 14.0591C29.8878 14.121 29.3022 13.5644 29.3022 12.8223V11.7092C29.3022 10.7197 30.6493 10.2355 31.5864 10.2355C36.9988 10.2355 45.4988 11.9734 45.4988 21.7367ZM26.2565 15.4197L26.8422 3.4842C26.8422 2.68026 26.198 2 25.4366 2H23.5037C22.7423 2 22.0981 2.68026 22.0981 3.4842L22.6838 15.4197C22.6838 16.2236 23.328 16.9039 24.0894 16.9039H24.8509C25.6708 16.842 26.2565 16.2236 26.2565 15.4197Z" fill="#1A6B96"/>
</g>
<defs>
<filter id="filter0_df_3_341" x="-16" y="-18" width="81.4988" height="85.9997" filterUnits="userSpaceOnUse" color-interpolation-filters="sRGB">
<feBlend mode="normal" in="SourceGraphic" in2="effect1_dropShadow_3_341" result="shape"/>
</filter>
</defs>
</svg>
