<svg width="50" height="50" viewBox="0 0 50 50" fill="none" xmlns="http://www.w3.org/2000/svg">
<g id="Vector" filter="url(#filter0_df_3_361)">
<path d="M48 21.7648V19.1364C48 17.6146 47.6505 16.0237 47.0213 14.6403C45.9027 12.4269 44.2249 10.5593 42.1976 9.24506C41.2189 8.62253 39.8207 8 37.7933 8H12.9058C10.8784 8 8.78116 8.55336 7.80243 9.24506C5.70517 10.5593 4.02736 12.4269 2.97872 14.6403C2.27964 16.0237 2 17.5455 2 19.1364V21.7648C2 22.249 2.41946 22.664 2.90882 22.664H15.2128C15.4225 22.664 15.4924 22.8024 15.4924 23.0099C15.2827 24.3241 15.6322 25.3617 15.8419 25.9842C15.9119 26.1917 15.772 26.3992 15.5623 26.3992H3.32827C2.97872 26.3992 2.62918 26.7451 2.769 27.0909L5.77508 41.8933C5.91489 42.5158 6.47417 43 7.10335 43H42.7568C43.386 43 44.0152 42.5158 44.0851 41.8933L47.0912 27.0909C47.1611 26.7451 46.8815 26.3992 46.5319 26.3992H34.2979C34.0882 26.3992 33.9483 26.1917 34.0182 25.9842C34.2979 25.3617 34.6474 24.3241 34.5076 22.9407C34.5076 22.8024 34.5775 22.5949 34.7872 22.5949H47.0912C47.5806 22.664 48 22.249 48 21.7648ZM27.9362 35.668H21.924C21.5046 35.668 21.2249 35.3221 21.2249 34.9763L21.7143 27.6443C21.7143 27.3676 21.6444 27.1601 21.4347 26.9526C20.0365 25.7767 19.2675 23.9091 19.6869 21.9032C20.1064 19.8281 21.7842 18.168 23.8815 17.753C27.307 17.1304 30.2432 19.6897 30.2432 22.9407C30.2432 24.5316 29.5441 25.9842 28.3556 26.9526C28.1459 27.0909 28.0061 27.3676 28.076 27.6443L28.5654 34.9763C28.6353 35.3221 28.3556 35.668 27.9362 35.668Z" fill="#1CFFFF"/>
</g>
<defs>
<filter id="filter0_df_3_361" x="-18" y="-12" width="86" height="75" filterUnits="userSpaceOnUse" color-interpolation-filters="sRGB">
<feBlend mode="normal" in="SourceGraphic" in2="effect2_dropShadow_3_358" result="shape"/>
</filter>
</defs>
</svg>
