<svg width="50" height="50" viewBox="0 0 50 50" fill="none" xmlns="http://www.w3.org/2000/svg">
<g id="Variation=Materials, Active=true" clip-path="url(#clip0_3_336)">
<g id="Vector" filter="url(#filter0_ddf_3_336)">
<path d="M45.5 22.7367C45.5 32.5 41 48.9997 24.4421 48.9997C7.88418 48.9997 4.00122 35 4.00122 22.7367C4.00122 13.8223 11.5 11.2355 17.5309 11.2355C18.468 11.2973 19.8151 11.7197 19.8151 12.7092V13.8223C19.8151 14.5026 19.2294 15.121 18.5851 15.0591L17.0037 14.9355C15.6566 14.8736 14.5438 15.9868 14.5438 17.4091L14.6024 17.7802C14.6609 18.5841 15.3052 19.2644 16.0666 19.3262L20.9865 19.8828C23.3292 20.192 25.7306 20.192 28.132 19.8828L33.0519 19.3262C33.8133 19.2644 34.4575 18.5841 34.5161 17.7802L34.5747 17.4091C34.5747 15.9868 33.4618 14.8736 32.1147 14.9355L30.5333 15.0591C29.8891 15.121 29.3034 14.5644 29.3034 13.8223V12.7092C29.3034 11.7197 30.6505 11.2355 31.5876 11.2355C37 11.2355 45.5 12.9734 45.5 22.7367ZM26.2577 16.4197L26.8434 4.4842C26.8434 3.68026 26.1992 3 25.4378 3H23.505C22.7435 3 22.0993 3.68026 22.0993 4.4842L22.685 16.4197C22.685 17.2236 23.3292 17.9039 24.0907 17.9039H24.8521C25.6721 17.842 26.2577 17.2236 26.2577 16.4197Z" fill="#1CFFFF"/>
</g>
</g>
<defs>
<filter id="filter0_ddf_3_336" x="-6.99878" y="-7" width="63.4988" height="67.9997" filterUnits="userSpaceOnUse" color-interpolation-filters="sRGB">
<feFlood flood-opacity="0" result="BackgroundImageFix"/>
<feColorMatrix in="SourceAlpha" type="matrix" values="0 0 0 0 0 0 0 0 0 0 0 0 0 0 0 0 0 0 127 0" result="hardAlpha"/>
<feOffset/>
<feGaussianBlur stdDeviation="5"/>
<feColorMatrix type="matrix" values="0 0 0 0 0.308377 0 0 0 0 0.751016 0 0 0 0 1 0 0 0 1 0"/>
<feBlend mode="normal" in2="BackgroundImageFix" result="effect1_dropShadow_3_336"/>
<feColorMatrix in="SourceAlpha" type="matrix" values="0 0 0 0 0 0 0 0 0 0 0 0 0 0 0 0 0 0 127 0" result="hardAlpha"/>
<feOffset dy="1"/>
<feGaussianBlur stdDeviation="5.5"/>
<feColorMatrix type="matrix" values="0 0 0 0 0.0385764 0 0 0 0 0.552554 0 0 0 0 0.841667 0 0 0 1 0"/>
<feBlend mode="hard-light" in2="effect1_dropShadow_3_336" result="effect2_dropShadow_3_336"/>
<feBlend mode="normal" in="SourceGraphic" in2="effect2_dropShadow_3_336" result="shape"/>
<feGaussianBlur stdDeviation="0.5" result="effect3_foregroundBlur_3_336"/>
</filter>
<clipPath id="clip0_3_336">
<rect width="50" height="50" fill="white"/>
</clipPath>
</defs>
</svg>
