<svg width="50" height="50" viewBox="0 0 50 50" fill="none" xmlns="http://www.w3.org/2000/svg">
<g id="Variation=Creatures, Active=false" clip-path="url(#clip0_3_333)">
<g id="Vector" filter="url(#filter0_df_3_333)">
<path d="M38.8136 17.4523C36.5121 12.8856 31.5953 10.1037 29.1369 8.94886C28.1431 8.47644 27.3062 7.68909 26.6785 6.74426C25.5801 4.95958 23.7493 2.17758 22.3371 1.44271C21.8663 1.23275 21.5002 1.07528 21.1863 1.02279C20.4017 0.865319 19.7218 1.5477 19.8264 2.33505L20.4541 8.05652C20.5064 8.58142 20.1402 9.10633 19.6172 9.21131C17.891 9.47376 14.4388 10.2611 13.2358 12.2558C11.3004 15.5102 12.4512 16.1926 10.3589 18.8171C8.26668 21.4416 1.46687 28.7903 1.46687 28.7903C1.46687 28.7903 -0.102323 31.4148 2.51299 33.5144C4.29141 34.9317 5.54676 35.5091 7.22056 35.0891C7.95285 34.9317 10.2543 33.6719 10.8297 33.1995C11.8235 32.4646 13.3404 31.5198 14.805 31.1523C16.8972 30.6274 17.6295 31.7822 19.7741 31.4673C22.1279 31.1523 23.174 29.0527 24.4816 29.8401C25.9985 30.7849 20.7679 42.1754 17.0541 47.8443C16.4265 48.7367 17.1064 49.9964 18.1526 49.9964C22.7032 50.1014 32.3799 47.8968 37.8197 41.6504C45.0903 33.1995 41.115 22.0715 38.8136 17.4523ZM18.3618 18.3972C17.3157 19.0795 15.9557 18.8171 15.3803 17.8722C14.7527 16.9274 15.5896 15.7726 16.6357 15.0902C17.6818 14.4079 18.6233 14.5129 19.1987 15.4577C19.7741 16.455 19.4079 17.7673 18.3618 18.3972ZM45.8749 39.5508C44.8811 39.3934 44.2011 38.501 44.3057 37.5037L44.8288 31.4148C44.9857 20.3918 42.1089 12.6757 33.8445 7.84656L31.0722 5.9569C30.5492 5.64196 29.8692 4.8546 29.66 4.17222C29.66 4.17222 28.6138 1.02279 30.7584 2.44003L35.3613 5.11705C44.6719 10.5761 48.6471 18.7121 47.9149 30.8899L47.3918 37.7137C47.4441 39.2359 46.6072 39.6558 45.8749 39.5508Z" fill="#1A6B96"/>
</g>
</g>
<defs>
<filter id="filter0_df_3_333" x="-19" y="-19" width="87" height="89" filterUnits="userSpaceOnUse" color-interpolation-filters="sRGB">
<feFlood flood-opacity="0" result="BackgroundImageFix"/>
<feColorMatrix in="SourceAlpha" type="matrix" values="0 0 0 0 0 0 0 0 0 0 0 0 0 0 0 0 0 0 127 0" result="hardAlpha"/>
<feOffset/>
<feGaussianBlur stdDeviation="10"/>
<feColorMatrix type="matrix" values="0 0 0 0 0 0 0 0 0 0.356232 0 0 0 0 0.614193 0 0 0 1 0"/>
<feBlend mode="normal" in2="BackgroundImageFix" result="effect1_dropShadow_3_333"/>
<feBlend mode="normal" in="SourceGraphic" in2="effect1_dropShadow_3_333" result="shape"/>
<feGaussianBlur stdDeviation="0.5" result="effect2_foregroundBlur_3_333"/>
</filter>
<clipPath id="clip0_3_333">
<rect width="50" height="50" fill="white"/>
</clipPath>
</defs>
</svg>
