<svg width="50" height="50" viewBox="0 0 50 50" fill="none" xmlns="http://www.w3.org/2000/svg">
<g id="Variation=Enemies, Active=false" clip-path="url(#clip0_3_347)">
<g id="Vector" filter="url(#filter0_df_3_347)">
<path d="M45.9012 14.8475C43.2027 7.8635 36.9063 4.44579 29.4106 4.0743C29.4106 4.0743 27.9114 4 25.9625 4C24.0136 4 22.5145 4.0743 22.5145 4.0743C15.0187 4.37149 8.79727 7.7892 6.09881 14.8475C5.27428 16.8536 4 20.94 4 23.8376C4 35.5024 10.6712 38.6229 14.0443 39.4402C15.1687 39.7374 16.0681 40.7032 16.2181 41.892L16.6678 44.641C16.6678 45.7555 17.4923 46.7214 18.6167 46.7957L22.7394 46.9443C24.9131 47.0186 27.0869 47.0186 29.2606 46.9443L33.3833 46.7957C34.5077 46.6471 35.3322 45.7555 35.3322 44.641L35.7819 41.892C35.9319 40.7032 36.8313 39.7374 37.9557 39.4402C41.3288 38.6229 48 35.5024 48 23.8376C48 20.94 46.7257 16.8536 45.9012 14.8475ZM16.4429 31.7132C11.8705 31.7132 10.3714 30.4501 10.3714 25.5464C10.3714 21.3114 13.6695 16.7793 16.9676 16.7793C21.0903 16.7793 22.3646 19.8255 22.3646 24.0605C22.2896 28.2955 21.2402 31.7132 16.4429 31.7132ZM25.9625 39.2173C24.9881 39.143 23.8637 38.0285 23.8637 35.2052C23.8637 32.0847 24.5383 31.7132 25.9625 31.7132C27.4617 31.7132 28.0613 32.0847 28.0613 35.2052C28.1363 38.0285 26.937 39.143 25.9625 39.2173ZM35.5571 31.7132C30.7598 31.7132 29.6354 28.2955 29.6354 24.0605C29.6354 19.8255 30.9847 16.7793 35.0324 16.7793C38.2555 16.7793 41.6286 21.3114 41.6286 25.5464C41.6286 30.3758 40.1295 31.7132 35.5571 31.7132Z" fill="#1A6B96"/>
</g>
</g>
<defs>
<filter id="filter0_df_3_347" x="-16" y="-16" width="84" height="83" filterUnits="userSpaceOnUse" color-interpolation-filters="sRGB">
<feFlood flood-opacity="0" result="BackgroundImageFix"/>
<feColorMatrix in="SourceAlpha" type="matrix" values="0 0 0 0 0 0 0 0 0 0 0 0 0 0 0 0 0 0 127 0" result="hardAlpha"/>
<feOffset/>
<feGaussianBlur stdDeviation="10"/>
<feColorMatrix type="matrix" values="0 0 0 0 0 0 0 0 0 0.356232 0 0 0 0 0.614193 0 0 0 1 0"/>
<feBlend mode="normal" in2="BackgroundImageFix" result="effect1_dropShadow_3_347"/>
<feBlend mode="normal" in="SourceGraphic" in2="effect1_dropShadow_3_347" result="shape"/>
<feGaussianBlur stdDeviation="0.5" result="effect2_foregroundBlur_3_347"/>
</filter>
<clipPath id="clip0_3_347">
<rect width="50" height="50" fill="white"/>
</clipPath>
</defs>
</svg>
