<svg width="50" height="50" viewBox="0 0 50 50" fill="none" xmlns="http://www.w3.org/2000/svg">
<g id="Vector" filter="url(#filter0_df_3_355)">
<path d="M45.6126 16.214L23.6976 36.738L19.381 32.3878L29.9511 21.7354L30.7259 19.393L28.4015 20.1738L17.8314 30.8262L13.5148 26.476L33.8803 4.3904L46 4L45.6126 16.214ZM24.1403 40.642L9.30888 25.6952C8.53411 24.9144 7.3166 24.9144 6.54183 25.6952L5.43501 26.8106C4.66023 27.5914 4.66023 28.8184 5.43501 29.5992L10.6924 34.8975L3.66409 41.9805C2.77864 42.8729 2.77864 44.3787 3.66409 45.2711L4.71557 46.3307C5.60103 47.2231 7.09524 47.2231 7.9807 46.3307L14.9537 39.3035L20.2111 44.6018C20.9858 45.3826 22.2033 45.3826 22.9781 44.6018L24.0849 43.4864C24.9151 42.6498 24.9151 41.4228 24.1403 40.642Z" fill="#1A6B96"/>
</g>
<defs>
<filter id="filter0_df_3_355" x="-17" y="-16" width="83" height="83" filterUnits="userSpaceOnUse" color-interpolation-filters="sRGB">
<feBlend mode="normal" in="SourceGraphic" in2="effect1_dropShadow_3_355" result="shape"/>
</filter>
</defs>
</svg>
