<svg width="90" height="93" viewBox="0 0 90 93" fill="none" xmlns="http://www.w3.org/2000/svg">
<g id="Vector" filter="url(#filter0_d_42_1198)">
<path d="M60.2272 37.5025C57.7788 32.6443 52.5482 29.6847 49.9329 28.4562C48.8756 27.9537 47.9853 27.116 47.3176 26.1109C46.149 24.2123 44.2014 21.2527 42.699 20.471C42.1982 20.2476 41.8087 20.0801 41.4748 20.0242C40.6402 19.8567 39.9168 20.5827 40.0281 21.4203L40.6958 27.5069C40.7514 28.0653 40.3619 28.6238 39.8055 28.7354C37.9692 29.0146 34.2966 29.8523 33.0168 31.9742C30.9579 35.4364 32.1821 36.1623 29.9563 38.9543C27.7305 41.7464 20.4967 49.5641 20.4967 49.5641C20.4967 49.5641 18.8273 52.3562 21.6096 54.5898C23.5015 56.0975 24.837 56.7118 26.6176 56.265C27.3966 56.0975 29.845 54.7573 30.4571 54.2548C31.5144 53.473 33.1281 52.4678 34.6861 52.077C36.9119 51.5186 37.691 52.7471 39.9724 52.412C42.4764 52.077 43.5893 49.8433 44.9805 50.6809C46.5942 51.6861 41.0297 63.8036 37.0789 69.8344C36.4111 70.7837 37.1345 72.1239 38.2474 72.1239C43.0885 72.2356 53.3829 69.8902 59.1699 63.2452C66.9046 54.2548 62.6756 42.4165 60.2272 37.5025ZM38.47 38.5076C37.3571 39.2335 35.9103 38.9543 35.2982 37.9492C34.6305 36.9441 35.5208 35.7156 36.6337 34.9896C37.7466 34.2637 38.7482 34.3754 39.3603 35.3805C39.9724 36.4415 39.5829 37.8375 38.47 38.5076ZM67.7393 61.0115C66.682 60.844 65.9586 59.8947 66.0699 58.8337L66.6264 52.3562C66.7933 40.6296 63.7328 32.4209 54.9409 27.2836L51.9917 25.2733C51.4353 24.9383 50.7119 24.1006 50.4893 23.3747C50.4893 23.3747 49.3764 20.0242 51.6579 21.532L56.5546 24.3798C66.4594 30.1873 70.6885 38.8427 69.9094 51.7978L69.353 59.0571C69.4086 60.6765 68.5183 61.1232 67.7393 61.0115Z" fill="#1A6B96"/>
</g>
<defs>
<filter id="filter0_d_42_1198" x="0" y="0" width="90" height="92.1277" filterUnits="userSpaceOnUse" color-interpolation-filters="sRGB">
<feFlood flood-opacity="0" result="BackgroundImageFix"/>
<feColorMatrix in="SourceAlpha" type="matrix" values="0 0 0 0 0 0 0 0 0 0 0 0 0 0 0 0 0 0 127 0" result="hardAlpha"/>
<feOffset/>
<feGaussianBlur stdDeviation="10"/>
<feColorMatrix type="matrix" values="0 0 0 0 0 0 0 0 0 0.356232 0 0 0 0 0.614193 0 0 0 1 0"/>
<feBlend mode="normal" in2="BackgroundImageFix" result="effect1_dropShadow_42_1198"/>
<feBlend mode="normal" in="SourceGraphic" in2="effect1_dropShadow_42_1198" result="shape"/>
</filter>
</defs>
</svg>
