<svg width="90" height="89" viewBox="0 0 90 89" fill="none" xmlns="http://www.w3.org/2000/svg">
<g id="Vector" filter="url(#filter0_d_42_1199)">
<path d="M67.615 32.3267C64.5486 24.3903 57.3935 20.5066 48.8756 20.0844C48.8756 20.0844 47.1721 20 44.9574 20C42.7428 20 41.0392 20.0844 41.0392 20.0844C32.5213 20.4221 25.4514 24.3059 22.385 32.3267C21.448 34.6063 20 39.2499 20 42.5427C20 55.7982 27.5809 59.3442 31.414 60.2729C32.6917 60.6106 33.7138 61.7082 33.8842 63.0591L34.3952 66.183C34.3952 67.4494 35.3322 68.547 36.6099 68.6315L41.2947 68.8003C43.7649 68.8847 46.2351 68.8847 48.7053 68.8003L53.3901 68.6315C54.6678 68.4626 55.6048 67.4494 55.6048 66.183L56.1158 63.0591C56.2862 61.7082 57.3083 60.6106 58.586 60.2729C62.4191 59.3442 70 55.7982 70 42.5427C70 39.2499 68.552 34.6063 67.615 32.3267ZM34.1397 51.4922C28.9438 51.4922 27.2402 50.0569 27.2402 44.4846C27.2402 39.6721 30.9881 34.5219 34.7359 34.5219C39.4208 34.5219 40.8688 37.9835 40.8688 42.796C40.7836 47.6085 39.5911 51.4922 34.1397 51.4922ZM44.9574 60.0196C43.8501 59.9352 42.5724 58.6688 42.5724 55.4604C42.5724 51.9144 43.339 51.4922 44.9574 51.4922C46.661 51.4922 47.3424 51.9144 47.3424 55.4604C47.4276 58.6688 46.0647 59.9352 44.9574 60.0196ZM55.8603 51.4922C50.4089 51.4922 49.1312 47.6085 49.1312 42.796C49.1312 37.9835 50.6644 34.5219 55.2641 34.5219C58.9267 34.5219 62.7598 39.6721 62.7598 44.4846C62.7598 49.9725 61.0562 51.4922 55.8603 51.4922Z" fill="#1A6B96"/>
</g>
<defs>
<filter id="filter0_d_42_1199" x="0" y="0" width="90" height="88.8636" filterUnits="userSpaceOnUse" color-interpolation-filters="sRGB">
<feFlood flood-opacity="0" result="BackgroundImageFix"/>
<feColorMatrix in="SourceAlpha" type="matrix" values="0 0 0 0 0 0 0 0 0 0 0 0 0 0 0 0 0 0 127 0" result="hardAlpha"/>
<feOffset/>
<feGaussianBlur stdDeviation="10"/>
<feColorMatrix type="matrix" values="0 0 0 0 0 0 0 0 0 0.356232 0 0 0 0 0.614193 0 0 0 1 0"/>
<feBlend mode="normal" in2="BackgroundImageFix" result="effect1_dropShadow_42_1199"/>
<feBlend mode="normal" in="SourceGraphic" in2="effect1_dropShadow_42_1199" result="shape"/>
</filter>
</defs>
</svg>
