<svg width="90" height="96" viewBox="0 0 90 96" fill="none" xmlns="http://www.w3.org/2000/svg">
<g id="Vector" filter="url(#filter0_d_42_1200)">
<path d="M70 43.7798C70 55.5432 64.5782 75.423 44.6283 75.423C24.6784 75.423 20 58.5554 20 43.7798C20 33.0393 29.0349 29.9226 36.3012 29.9226C37.4303 29.9971 39.0534 30.506 39.0534 31.6981V33.0393C39.0534 33.8589 38.3477 34.604 37.5715 34.5295L35.6661 34.3805C34.0431 34.306 32.7022 35.6472 32.7022 37.3609L32.7728 37.808C32.8434 38.7766 33.6197 39.5962 34.537 39.6707L40.4647 40.3413C43.2875 40.7139 46.1808 40.7139 49.0741 40.3413L55.0018 39.6707C55.9192 39.5962 56.6954 38.7766 56.766 37.808L56.8366 37.3609C56.8366 35.6472 55.4958 34.306 53.8727 34.3805L51.9673 34.5295C51.1911 34.604 50.4854 33.9334 50.4854 33.0393V31.6981C50.4854 30.506 52.1085 29.9226 53.2376 29.9226C59.7587 29.9226 70 32.0165 70 43.7798ZM46.8159 36.1687L47.5216 21.7882C47.5216 20.8196 46.7453 20 45.8279 20H43.4992C42.5818 20 41.8056 20.8196 41.8056 21.7882L42.5112 36.1687C42.5112 37.1374 43.2875 37.957 44.2048 37.957H45.1223C46.1102 37.8825 46.8159 37.1374 46.8159 36.1687Z" fill="#1A6B96"/>
</g>
<defs>
<filter id="filter0_d_42_1200" x="0" y="0" width="90" height="95.423" filterUnits="userSpaceOnUse" color-interpolation-filters="sRGB">
<feFlood flood-opacity="0" result="BackgroundImageFix"/>
<feColorMatrix in="SourceAlpha" type="matrix" values="0 0 0 0 0 0 0 0 0 0 0 0 0 0 0 0 0 0 127 0" result="hardAlpha"/>
<feOffset/>
<feGaussianBlur stdDeviation="10"/>
<feColorMatrix type="matrix" values="0 0 0 0 0 0 0 0 0 0.356232 0 0 0 0 0.614193 0 0 0 1 0"/>
<feBlend mode="normal" in2="BackgroundImageFix" result="effect1_dropShadow_42_1200"/>
<feBlend mode="normal" in="SourceGraphic" in2="effect1_dropShadow_42_1200" result="shape"/>
</filter>
</defs>
</svg>
