<svg width="90" height="79" viewBox="0 0 90 79" fill="none" xmlns="http://www.w3.org/2000/svg">
<g id="Vector" filter="url(#filter0_d_42_1202)">
<path d="M70 34.9618V32.1047C70 30.4507 69.6201 28.7214 68.9362 27.2177C67.7204 24.8118 65.8967 22.7818 63.693 21.3533C62.6292 20.6767 61.1094 20 58.9058 20H31.8541C29.6505 20 27.3708 20.6015 26.307 21.3533C24.0274 22.7818 22.2036 24.8118 21.0638 27.2177C20.304 28.7214 20 30.3755 20 32.1047V34.9618C20 35.4881 20.4559 35.9392 20.9878 35.9392H34.3617C34.5897 35.9392 34.6657 36.0895 34.6657 36.3151C34.4377 37.7436 34.8176 38.8714 35.0456 39.548C35.1216 39.7736 34.9696 39.9991 34.7416 39.9991H21.4438C21.0638 39.9991 20.6839 40.3751 20.8359 40.751L24.1033 56.8405C24.2553 57.5172 24.8632 58.0435 25.5471 58.0435H64.3009C64.9848 58.0435 65.6687 57.5172 65.7447 56.8405L69.0122 40.751C69.0882 40.3751 68.7842 39.9991 68.4043 39.9991H55.1064C54.8784 39.9991 54.7264 39.7736 54.8024 39.548C55.1064 38.8714 55.4863 37.7436 55.3344 36.2399C55.3344 36.0895 55.4103 35.864 55.6383 35.864H69.0122C69.5441 35.9392 70 35.4881 70 34.9618ZM48.1915 50.0739H41.6565C41.2006 50.0739 40.8967 49.698 40.8967 49.3221L41.4286 41.3525C41.4286 41.0517 41.3526 40.8262 41.1246 40.6006C39.6049 39.3225 38.769 37.2925 39.2249 35.1121C39.6809 32.8566 41.5046 31.0522 43.7842 30.601C47.5076 29.9244 50.6991 32.7062 50.6991 36.2399C50.6991 37.9692 49.9392 39.548 48.6474 40.6006C48.4195 40.751 48.2675 41.0517 48.3435 41.3525L48.8754 49.3221C48.9514 49.698 48.6474 50.0739 48.1915 50.0739Z" fill="#1A6B96"/>
</g>
<defs>
<filter id="filter0_d_42_1202" x="0" y="0" width="90" height="78.0435" filterUnits="userSpaceOnUse" color-interpolation-filters="sRGB">
<feFlood flood-opacity="0" result="BackgroundImageFix"/>
<feColorMatrix in="SourceAlpha" type="matrix" values="0 0 0 0 0 0 0 0 0 0 0 0 0 0 0 0 0 0 127 0" result="hardAlpha"/>
<feOffset/>
<feGaussianBlur stdDeviation="10"/>
<feColorMatrix type="matrix" values="0 0 0 0 0 0 0 0 0 0.356232 0 0 0 0 0.614193 0 0 0 1 0"/>
<feBlend mode="normal" in2="BackgroundImageFix" result="effect1_dropShadow_42_1202"/>
<feBlend mode="normal" in="SourceGraphic" in2="effect1_dropShadow_42_1202" result="shape"/>
</filter>
</defs>
</svg>
