<svg width="90" height="90" viewBox="0 0 90 90" fill="none" xmlns="http://www.w3.org/2000/svg">
<g id="Vector" filter="url(#filter0_d_42_1201)">
<path d="M69.5496 34.2023L44.0669 58.0674L39.0476 53.0091L51.3385 40.6226L52.2394 37.8988L49.5367 38.8067L37.2458 51.1933L32.2265 46.1349L55.9073 20.454L70 20L69.5496 34.2023ZM44.5817 62.607L27.3359 45.227C26.435 44.3191 25.0193 44.3191 24.1184 45.227L22.8314 46.524C21.9305 47.4319 21.9305 48.8586 22.8314 49.7665L28.9447 55.9274L20.7722 64.1634C19.7426 65.201 19.7426 66.952 20.7722 67.9896L21.9949 69.2218C23.0245 70.2594 24.7619 70.2594 25.7915 69.2218L33.8996 61.0506L40.0129 67.2114C40.9138 68.1193 42.3295 68.1193 43.2304 67.2114L44.5174 65.9144C45.4826 64.9416 45.4826 63.5149 44.5817 62.607Z" fill="#1A6B96"/>
</g>
<defs>
<filter id="filter0_d_42_1201" x="0" y="0" width="90" height="90" filterUnits="userSpaceOnUse" color-interpolation-filters="sRGB">
<feFlood flood-opacity="0" result="BackgroundImageFix"/>
<feColorMatrix in="SourceAlpha" type="matrix" values="0 0 0 0 0 0 0 0 0 0 0 0 0 0 0 0 0 0 127 0" result="hardAlpha"/>
<feOffset/>
<feGaussianBlur stdDeviation="10"/>
<feColorMatrix type="matrix" values="0 0 0 0 0 0 0 0 0 0.356232 0 0 0 0 0.614193 0 0 0 1 0"/>
<feBlend mode="normal" in2="BackgroundImageFix" result="effect1_dropShadow_42_1201"/>
<feBlend mode="normal" in="SourceGraphic" in2="effect1_dropShadow_42_1201" result="shape"/>
</filter>
</defs>
</svg>
