<svg width="172" height="18" viewBox="0 0 172 18" fill="none" xmlns="http://www.w3.org/2000/svg">
<g id="Group 5">
<path id="Vector" d="M22.3201 6.52185C21.9264 5.1757 20.7455 4.18669 19.3115 4.02185C19.2272 4.02185 19.1428 3.93944 19.1147 3.85702C18.7773 1.5768 16.6685 -0.153972 14.1942 0.0108634C11.8886 0.175699 10.0328 2.0713 9.9485 4.35152C9.89226 5.78009 10.5671 7.09878 11.6074 7.95043C11.748 8.06032 11.748 8.2801 11.5793 8.38999L11.3544 8.55482C11.2419 8.63724 11.1294 8.60977 11.0451 8.49988C9.83603 6.82405 7.75536 5.80757 5.47786 6.02735C2.77862 6.2746 0.276187 8.7746 0.0231324 11.412C-0.314274 15.2581 3.0879 18.4175 7.05243 17.7856C9.83603 17.346 12.1698 14.5988 12.1416 11.8515C12.1416 11.5768 12.1135 11.2746 12.0573 10.9999C12.0292 10.89 12.0854 10.7526 12.1979 10.6977L14.4191 9.13174C14.5597 9.04933 14.7003 8.99438 14.8409 8.99438C15.0096 8.99438 15.1502 8.96691 15.3189 8.93944C15.4595 8.91196 15.6 8.99438 15.6563 9.13174C16.2467 10.2581 17.4558 11.0273 18.8335 11.0273C20.2113 11.0273 21.3922 10.2856 21.9826 9.18669C22.3919 8.38704 22.5643 7.23785 22.3201 6.52185ZM6.09644 14.901C4.40941 14.901 3.05979 13.5823 3.05979 11.9339C3.05979 10.2856 4.43753 8.96691 6.09644 8.96691C7.78347 8.96691 9.1331 10.3131 9.1331 11.9339C9.1331 13.5548 7.78347 14.901 6.09644 14.901ZM16.4436 4.92845C16.3311 5.42295 16.0218 5.83504 15.6 6.08229C15.2908 6.2746 14.9534 6.38449 14.5597 6.38449C14.5316 6.38449 14.4754 6.38449 14.4472 6.38449C13.435 6.32955 12.6477 5.50537 12.6477 4.51636C12.6477 3.4724 13.5194 2.62075 14.5878 2.62075C15.6563 2.62075 16.5279 3.4724 16.5279 4.51636C16.4998 4.65372 16.4717 4.79108 16.4436 4.92845ZM18.8898 9.02185C18.2149 9.02185 17.6526 8.60977 17.4277 8.03284C17.3714 7.86801 17.3433 7.70317 17.3433 7.51086C17.3433 6.68669 18.0462 5.99988 18.8898 5.99988H18.9179C19.7614 5.99988 20.4362 6.68669 20.4362 7.51086C20.4362 8.33504 19.7333 9.02185 18.8898 9.02185Z" fill="#3CD3FC"/>
<rect id="Rectangle 75" x="21.4325" y="8" width="150" height="2" fill="#3CD3FC"/>
</g>
</svg>
