<svg width="172" height="18" viewBox="0 0 172 18" fill="none" xmlns="http://www.w3.org/2000/svg">
<g id="Group 4">
<rect id="Rectangle 76" x="150" y="11" width="150" height="2" transform="rotate(-180 150 11)" fill="#3CD3FC"/>
<path id="Vector" d="M149.112 11.3446C149.506 12.6908 150.687 13.6798 152.121 13.8446C152.205 13.8446 152.29 13.927 152.318 14.0094C152.655 16.2897 154.764 18.0204 157.238 17.8556C159.544 17.6908 161.4 15.7952 161.484 13.5149C161.54 12.0864 160.865 10.7677 159.825 9.91603C159.685 9.80614 159.685 9.58636 159.853 9.47647L160.078 9.31163C160.191 9.22922 160.303 9.25669 160.387 9.36658C161.596 11.0424 163.677 12.0589 165.955 11.8391C168.654 11.5919 171.156 9.09185 171.409 6.45449C171.747 2.60834 168.345 -0.551004 164.38 0.0808646C161.596 0.520425 159.263 3.26768 159.291 6.01493C159.291 6.28966 159.319 6.59185 159.375 6.86658C159.403 6.97647 159.347 7.11383 159.235 7.16878L157.013 8.73471C156.873 8.81713 156.732 8.87207 156.592 8.87207C156.423 8.87207 156.282 8.89955 156.114 8.92702C155.973 8.95449 155.832 8.87207 155.776 8.73471C155.186 7.60834 153.977 6.83911 152.599 6.83911C151.221 6.83911 150.04 7.58086 149.45 8.67977C149.041 9.47942 148.868 10.6286 149.112 11.3446ZM165.336 2.96548C167.023 2.96548 168.373 4.28416 168.373 5.93251C168.373 7.58086 166.995 8.89955 165.336 8.89955C163.649 8.89955 162.299 7.55339 162.299 5.93251C162.299 4.31163 163.649 2.96548 165.336 2.96548ZM154.989 12.938C155.101 12.4435 155.411 12.0314 155.832 11.7842C156.142 11.5919 156.479 11.482 156.873 11.482C156.901 11.482 156.957 11.482 156.985 11.482C157.997 11.5369 158.785 12.3611 158.785 13.3501C158.785 14.3941 157.913 15.2457 156.845 15.2457C155.776 15.2457 154.905 14.3941 154.905 13.3501C154.933 13.2127 154.961 13.0754 154.989 12.938ZM152.543 8.8446C153.218 8.8446 153.78 9.25669 154.005 9.83361C154.061 9.99845 154.089 10.1633 154.089 10.3556C154.089 11.1798 153.386 11.8666 152.543 11.8666H152.515C151.671 11.8666 150.996 11.1798 150.996 10.3556C150.996 9.53141 151.699 8.8446 152.543 8.8446Z" fill="#3CD3FC"/>
</g>
</svg>
